<svg xmlns="http://www.w3.org/2000/svg" width="512" height="512" viewBox="0 0 512 512" role="img">
  <title>dvg</title>
  <desc>Lowercase dvg monogram in monospace, white on near-black with an amber underscore bar.</desc>
  <rect width="512" height="512" rx="96.00" fill="#16181C"/>
  <g fill="#FFFFFF">
    <path transform="translate(114.976 279.040) scale(0.076250 -0.076250)" d="M791 961V1556H1083V0H791V166Q744 69 669.5 20.0Q595 -29 494 -29Q302 -29 196.0 125.0Q90 279 90 559Q90 843 197.5 995.0Q305 1147 504 1147Q594 1147 665.5 1100.5Q737 1054 791 961ZM383 557Q383 395 437.0 303.0Q491 211 586 211Q681 211 736.0 303.0Q791 395 791 557Q791 719 736.0 811.0Q681 903 586 903Q491 903 437.0 811.0Q383 719 383 557Z"/>
    <path transform="translate(208.992 279.040) scale(0.076250 -0.076250)" d="M1153 1120 797 0H436L80 1120H377L616 246L856 1120Z"/>
    <path transform="translate(303.008 279.040) scale(0.076250 -0.076250)" d="M803 578Q803 728 746.0 818.5Q689 909 596 909Q504 909 447.5 819.0Q391 729 391 578Q391 426 447.5 336.0Q504 246 596 246Q689 246 746.0 336.5Q803 427 803 578ZM1096 84Q1096 -185 974.5 -304.5Q853 -424 580 -424Q488 -424 398.0 -410.5Q308 -397 215 -369V-100Q298 -146 384.0 -168.0Q470 -190 561 -190Q685 -190 744.0 -131.5Q803 -73 803 51V172Q760 92 689.0 53.0Q618 14 516 14Q324 14 211.0 164.0Q98 314 98 571Q98 837 211.0 993.0Q324 1149 514 1149Q610 1149 685.0 1104.0Q760 1059 803 977V1120H1096Z"/>
  </g>
  <rect x="134.40" y="314.88" width="243.20" height="25.60" rx="12.80" fill="#E8A33D"/>
</svg>
